<mxfile host="app.diagrams.net" agent="Mozilla/5.0 (Windows NT 10.0; Win64; x64) AppleWebKit/537.36 (KHTML, like Gecko) Chrome/137.0.0.0 Safari/537.36" version="27.1.4">
  <diagram name="Page-1" id="kN0vJSzP7hla3xJ3QHGN">
    <mxGraphModel dx="1048" dy="620" grid="1" gridSize="10" guides="1" tooltips="1" connect="1" arrows="1" fold="1" page="1" pageScale="1" pageWidth="850" pageHeight="1100" math="0" shadow="0">
      <root>
        <mxCell id="0" />
        <mxCell id="1" parent="0" />
        <mxCell id="uZxjk2ptFaiyLhCvUpz8-1" value="GanaSalesLite" style="shape=umlLifeline;perimeter=lifelinePerimeter;whiteSpace=wrap;html=1;container=0;dropTarget=0;collapsible=0;recursiveResize=0;outlineConnect=0;portConstraint=eastwest;newEdgeStyle={&quot;edgeStyle&quot;:&quot;elbowEdgeStyle&quot;,&quot;elbow&quot;:&quot;vertical&quot;,&quot;curved&quot;:0,&quot;rounded&quot;:0};fontFamily=Times New Roman;fontSize=14;" vertex="1" parent="1">
          <mxGeometry x="197" y="93" width="100" height="396" as="geometry" />
        </mxCell>
        <mxCell id="uZxjk2ptFaiyLhCvUpz8-2" value="" style="html=1;points=[];perimeter=orthogonalPerimeter;outlineConnect=0;targetShapes=umlLifeline;portConstraint=eastwest;newEdgeStyle={&quot;edgeStyle&quot;:&quot;elbowEdgeStyle&quot;,&quot;elbow&quot;:&quot;vertical&quot;,&quot;curved&quot;:0,&quot;rounded&quot;:0};fontFamily=Times New Roman;fontSize=14;" vertex="1" parent="uZxjk2ptFaiyLhCvUpz8-1">
          <mxGeometry x="45" y="70" width="10" height="250" as="geometry" />
        </mxCell>
        <mxCell id="uZxjk2ptFaiyLhCvUpz8-4" value="Inventory Management" style="shape=umlLifeline;perimeter=lifelinePerimeter;whiteSpace=wrap;html=1;container=0;dropTarget=0;collapsible=0;recursiveResize=0;outlineConnect=0;portConstraint=eastwest;newEdgeStyle={&quot;edgeStyle&quot;:&quot;elbowEdgeStyle&quot;,&quot;elbow&quot;:&quot;vertical&quot;,&quot;curved&quot;:0,&quot;rounded&quot;:0};fontFamily=Times New Roman;fontSize=14;" vertex="1" parent="1">
          <mxGeometry x="327" y="93" width="100" height="400" as="geometry" />
        </mxCell>
        <mxCell id="uZxjk2ptFaiyLhCvUpz8-5" value="" style="html=1;points=[];perimeter=orthogonalPerimeter;outlineConnect=0;targetShapes=umlLifeline;portConstraint=eastwest;newEdgeStyle={&quot;edgeStyle&quot;:&quot;elbowEdgeStyle&quot;,&quot;elbow&quot;:&quot;vertical&quot;,&quot;curved&quot;:0,&quot;rounded&quot;:0};fontFamily=Times New Roman;fontSize=14;" vertex="1" parent="uZxjk2ptFaiyLhCvUpz8-4">
          <mxGeometry x="45" y="70" width="10" height="40" as="geometry" />
        </mxCell>
        <mxCell id="uZxjk2ptFaiyLhCvUpz8-16" value="" style="endArrow=classic;html=1;rounded=0;fontFamily=Times New Roman;fontSize=14;" edge="1" parent="uZxjk2ptFaiyLhCvUpz8-4" source="uZxjk2ptFaiyLhCvUpz8-4" target="uZxjk2ptFaiyLhCvUpz8-5">
          <mxGeometry width="50" height="50" relative="1" as="geometry">
            <mxPoint x="60.16666666666663" y="50" as="sourcePoint" />
            <mxPoint x="120" y="80" as="targetPoint" />
            <Array as="points">
              <mxPoint x="90" y="50" />
              <mxPoint x="90" y="74" />
            </Array>
          </mxGeometry>
        </mxCell>
        <mxCell id="uZxjk2ptFaiyLhCvUpz8-6" value="Manage Inventory" style="html=1;verticalAlign=bottom;endArrow=block;edgeStyle=elbowEdgeStyle;elbow=vertical;curved=0;rounded=0;fontFamily=Times New Roman;fontSize=14;" edge="1" parent="1" source="uZxjk2ptFaiyLhCvUpz8-2" target="uZxjk2ptFaiyLhCvUpz8-5">
          <mxGeometry relative="1" as="geometry">
            <mxPoint x="332" y="183" as="sourcePoint" />
            <Array as="points">
              <mxPoint x="317" y="173" />
            </Array>
          </mxGeometry>
        </mxCell>
        <mxCell id="uZxjk2ptFaiyLhCvUpz8-7" value="Customer Management" style="shape=umlLifeline;perimeter=lifelinePerimeter;whiteSpace=wrap;html=1;container=0;dropTarget=0;collapsible=0;recursiveResize=0;outlineConnect=0;portConstraint=eastwest;newEdgeStyle={&quot;edgeStyle&quot;:&quot;elbowEdgeStyle&quot;,&quot;elbow&quot;:&quot;vertical&quot;,&quot;curved&quot;:0,&quot;rounded&quot;:0};fontFamily=Times New Roman;fontSize=14;" vertex="1" parent="1">
          <mxGeometry x="457" y="93" width="100" height="400" as="geometry" />
        </mxCell>
        <mxCell id="uZxjk2ptFaiyLhCvUpz8-8" value="" style="html=1;points=[];perimeter=orthogonalPerimeter;outlineConnect=0;targetShapes=umlLifeline;portConstraint=eastwest;newEdgeStyle={&quot;edgeStyle&quot;:&quot;elbowEdgeStyle&quot;,&quot;elbow&quot;:&quot;vertical&quot;,&quot;curved&quot;:0,&quot;rounded&quot;:0};fontFamily=Times New Roman;fontSize=14;" vertex="1" parent="uZxjk2ptFaiyLhCvUpz8-7">
          <mxGeometry x="45" y="120" width="10" height="50" as="geometry" />
        </mxCell>
        <mxCell id="uZxjk2ptFaiyLhCvUpz8-9" value="" style="endArrow=classic;html=1;rounded=0;fontFamily=Times New Roman;fontSize=14;" edge="1" parent="uZxjk2ptFaiyLhCvUpz8-7" source="uZxjk2ptFaiyLhCvUpz8-8" target="uZxjk2ptFaiyLhCvUpz8-7">
          <mxGeometry width="50" height="50" relative="1" as="geometry">
            <mxPoint x="60" y="156" as="sourcePoint" />
            <mxPoint x="60" y="180" as="targetPoint" />
            <Array as="points">
              <mxPoint x="89.83333333333337" y="156" />
              <mxPoint x="89.83333333333337" y="180" />
            </Array>
          </mxGeometry>
        </mxCell>
        <mxCell id="uZxjk2ptFaiyLhCvUpz8-10" value="Purchasing Management" style="shape=umlLifeline;perimeter=lifelinePerimeter;whiteSpace=wrap;html=1;container=0;dropTarget=0;collapsible=0;recursiveResize=0;outlineConnect=0;portConstraint=eastwest;newEdgeStyle={&quot;edgeStyle&quot;:&quot;elbowEdgeStyle&quot;,&quot;elbow&quot;:&quot;vertical&quot;,&quot;curved&quot;:0,&quot;rounded&quot;:0};fontFamily=Times New Roman;fontSize=14;" vertex="1" parent="1">
          <mxGeometry x="587" y="93" width="100" height="400" as="geometry" />
        </mxCell>
        <mxCell id="uZxjk2ptFaiyLhCvUpz8-11" value="" style="html=1;points=[];perimeter=orthogonalPerimeter;outlineConnect=0;targetShapes=umlLifeline;portConstraint=eastwest;newEdgeStyle={&quot;edgeStyle&quot;:&quot;elbowEdgeStyle&quot;,&quot;elbow&quot;:&quot;vertical&quot;,&quot;curved&quot;:0,&quot;rounded&quot;:0};fontFamily=Times New Roman;fontSize=14;" vertex="1" parent="uZxjk2ptFaiyLhCvUpz8-10">
          <mxGeometry x="45" y="190" width="10" height="40" as="geometry" />
        </mxCell>
        <mxCell id="uZxjk2ptFaiyLhCvUpz8-12" value="Sale&amp;nbsp;&lt;div&gt;Management&lt;/div&gt;" style="shape=umlLifeline;perimeter=lifelinePerimeter;whiteSpace=wrap;html=1;container=0;dropTarget=0;collapsible=0;recursiveResize=0;outlineConnect=0;portConstraint=eastwest;newEdgeStyle={&quot;edgeStyle&quot;:&quot;elbowEdgeStyle&quot;,&quot;elbow&quot;:&quot;vertical&quot;,&quot;curved&quot;:0,&quot;rounded&quot;:0};fontFamily=Times New Roman;fontSize=14;" vertex="1" parent="1">
          <mxGeometry x="717" y="93" width="100" height="400" as="geometry" />
        </mxCell>
        <mxCell id="uZxjk2ptFaiyLhCvUpz8-13" value="" style="html=1;points=[];perimeter=orthogonalPerimeter;outlineConnect=0;targetShapes=umlLifeline;portConstraint=eastwest;newEdgeStyle={&quot;edgeStyle&quot;:&quot;elbowEdgeStyle&quot;,&quot;elbow&quot;:&quot;vertical&quot;,&quot;curved&quot;:0,&quot;rounded&quot;:0};fontFamily=Times New Roman;fontSize=14;" vertex="1" parent="uZxjk2ptFaiyLhCvUpz8-12">
          <mxGeometry x="45" y="230" width="10" height="40" as="geometry" />
        </mxCell>
        <mxCell id="uZxjk2ptFaiyLhCvUpz8-17" value="" style="endArrow=classic;html=1;rounded=0;entryX=0.507;entryY=0.184;entryDx=0;entryDy=0;entryPerimeter=0;fontFamily=Times New Roman;fontSize=14;" edge="1" parent="1">
          <mxGeometry width="50" height="50" relative="1" as="geometry">
            <mxPoint x="507" y="183" as="sourcePoint" />
            <mxPoint x="507.83333333333337" y="207" as="targetPoint" />
            <Array as="points">
              <mxPoint x="536.8333333333334" y="183" />
              <mxPoint x="536.8333333333334" y="207" />
            </Array>
          </mxGeometry>
        </mxCell>
        <mxCell id="uZxjk2ptFaiyLhCvUpz8-18" value="" style="endArrow=classic;html=1;rounded=0;entryX=0.507;entryY=0.184;entryDx=0;entryDy=0;entryPerimeter=0;fontFamily=Times New Roman;fontSize=14;" edge="1" parent="1">
          <mxGeometry width="50" height="50" relative="1" as="geometry">
            <mxPoint x="507" y="143" as="sourcePoint" />
            <mxPoint x="507.83333333333337" y="167" as="targetPoint" />
            <Array as="points">
              <mxPoint x="536.8333333333334" y="143" />
              <mxPoint x="537" y="153" />
              <mxPoint x="536.8333333333334" y="167" />
            </Array>
          </mxGeometry>
        </mxCell>
        <mxCell id="uZxjk2ptFaiyLhCvUpz8-19" value="" style="endArrow=classic;html=1;rounded=0;entryX=0.507;entryY=0.184;entryDx=0;entryDy=0;entryPerimeter=0;fontFamily=Times New Roman;fontSize=14;" edge="1" parent="1">
          <mxGeometry width="50" height="50" relative="1" as="geometry">
            <mxPoint x="377" y="403" as="sourcePoint" />
            <mxPoint x="377.83333333333337" y="427" as="targetPoint" />
            <Array as="points">
              <mxPoint x="406.83333333333337" y="403" />
              <mxPoint x="406.83333333333337" y="427" />
            </Array>
          </mxGeometry>
        </mxCell>
        <mxCell id="uZxjk2ptFaiyLhCvUpz8-20" value="" style="endArrow=classic;html=1;rounded=0;fontFamily=Times New Roman;fontSize=14;" edge="1" parent="1" target="uZxjk2ptFaiyLhCvUpz8-10">
          <mxGeometry width="50" height="50" relative="1" as="geometry">
            <mxPoint x="637" y="223" as="sourcePoint" />
            <mxPoint x="637.8333333333334" y="247" as="targetPoint" />
            <Array as="points">
              <mxPoint x="666.8333333333334" y="223" />
              <mxPoint x="666.8333333333334" y="247" />
            </Array>
          </mxGeometry>
        </mxCell>
        <mxCell id="uZxjk2ptFaiyLhCvUpz8-21" value="" style="endArrow=classic;html=1;rounded=0;fontFamily=Times New Roman;fontSize=14;" edge="1" parent="1" target="uZxjk2ptFaiyLhCvUpz8-10">
          <mxGeometry width="50" height="50" relative="1" as="geometry">
            <mxPoint x="637" y="183" as="sourcePoint" />
            <mxPoint x="637.8333333333334" y="207" as="targetPoint" />
            <Array as="points">
              <mxPoint x="666.8333333333334" y="183" />
              <mxPoint x="666.8333333333334" y="207" />
            </Array>
          </mxGeometry>
        </mxCell>
        <mxCell id="uZxjk2ptFaiyLhCvUpz8-22" value="" style="endArrow=classic;html=1;rounded=0;fontFamily=Times New Roman;fontSize=14;" edge="1" parent="1" target="uZxjk2ptFaiyLhCvUpz8-10">
          <mxGeometry width="50" height="50" relative="1" as="geometry">
            <mxPoint x="637" y="143" as="sourcePoint" />
            <mxPoint x="647" y="163" as="targetPoint" />
            <Array as="points">
              <mxPoint x="666.8333333333334" y="143" />
              <mxPoint x="666.8333333333334" y="167" />
            </Array>
          </mxGeometry>
        </mxCell>
        <mxCell id="uZxjk2ptFaiyLhCvUpz8-23" value="Manage Customer Details" style="html=1;verticalAlign=bottom;endArrow=block;edgeStyle=elbowEdgeStyle;elbow=vertical;curved=0;rounded=0;fontFamily=Times New Roman;fontSize=14;" edge="1" parent="1" source="uZxjk2ptFaiyLhCvUpz8-2" target="uZxjk2ptFaiyLhCvUpz8-7">
          <mxGeometry relative="1" as="geometry">
            <mxPoint x="257" y="243" as="sourcePoint" />
            <Array as="points">
              <mxPoint x="322" y="243" />
            </Array>
            <mxPoint x="387" y="243" as="targetPoint" />
          </mxGeometry>
        </mxCell>
        <mxCell id="uZxjk2ptFaiyLhCvUpz8-24" value="Manage Purchasing Details" style="html=1;verticalAlign=bottom;endArrow=block;edgeStyle=elbowEdgeStyle;elbow=vertical;curved=0;rounded=0;fontFamily=Times New Roman;fontSize=14;" edge="1" parent="1" source="uZxjk2ptFaiyLhCvUpz8-2" target="uZxjk2ptFaiyLhCvUpz8-11">
          <mxGeometry relative="1" as="geometry">
            <mxPoint x="249.5" y="303" as="sourcePoint" />
            <Array as="points">
              <mxPoint x="319.5" y="303" />
            </Array>
            <mxPoint x="524.5" y="303" as="targetPoint" />
          </mxGeometry>
        </mxCell>
        <mxCell id="uZxjk2ptFaiyLhCvUpz8-25" value="Manage Sales Details" style="html=1;verticalAlign=bottom;endArrow=block;edgeStyle=elbowEdgeStyle;elbow=vertical;curved=0;rounded=0;fontFamily=Times New Roman;fontSize=14;" edge="1" parent="1" source="uZxjk2ptFaiyLhCvUpz8-2" target="uZxjk2ptFaiyLhCvUpz8-13">
          <mxGeometry relative="1" as="geometry">
            <mxPoint x="257" y="343" as="sourcePoint" />
            <Array as="points">
              <mxPoint x="327" y="343" />
            </Array>
            <mxPoint x="532" y="343" as="targetPoint" />
          </mxGeometry>
        </mxCell>
        <mxCell id="uZxjk2ptFaiyLhCvUpz8-27" value="" style="endArrow=classic;html=1;rounded=0;entryX=0.507;entryY=0.184;entryDx=0;entryDy=0;entryPerimeter=0;fontFamily=Times New Roman;fontSize=14;" edge="1" parent="1">
          <mxGeometry width="50" height="50" relative="1" as="geometry">
            <mxPoint x="767" y="239" as="sourcePoint" />
            <mxPoint x="767.8333333333334" y="263" as="targetPoint" />
            <Array as="points">
              <mxPoint x="796.8333333333334" y="239" />
              <mxPoint x="796.8333333333334" y="263" />
            </Array>
          </mxGeometry>
        </mxCell>
        <mxCell id="uZxjk2ptFaiyLhCvUpz8-28" value="" style="endArrow=classic;html=1;rounded=0;entryX=0.507;entryY=0.184;entryDx=0;entryDy=0;entryPerimeter=0;fontFamily=Times New Roman;fontSize=14;" edge="1" parent="1">
          <mxGeometry width="50" height="50" relative="1" as="geometry">
            <mxPoint x="767" y="199" as="sourcePoint" />
            <mxPoint x="767.8333333333334" y="223" as="targetPoint" />
            <Array as="points">
              <mxPoint x="796.8333333333334" y="199" />
              <mxPoint x="796.8333333333334" y="223" />
            </Array>
          </mxGeometry>
        </mxCell>
        <mxCell id="uZxjk2ptFaiyLhCvUpz8-32" value="" style="endArrow=classic;html=1;rounded=0;entryX=0.507;entryY=0.184;entryDx=0;entryDy=0;entryPerimeter=0;fontFamily=Times New Roman;fontSize=14;" edge="1" parent="1">
          <mxGeometry width="50" height="50" relative="1" as="geometry">
            <mxPoint x="767" y="151" as="sourcePoint" />
            <mxPoint x="767.8333333333334" y="175" as="targetPoint" />
            <Array as="points">
              <mxPoint x="796.8333333333334" y="151" />
              <mxPoint x="796.8333333333334" y="175" />
            </Array>
          </mxGeometry>
        </mxCell>
        <mxCell id="uZxjk2ptFaiyLhCvUpz8-33" value="Add/Edit&amp;nbsp;&lt;div&gt;Inventory&lt;/div&gt;" style="text;html=1;align=center;verticalAlign=middle;resizable=0;points=[];autosize=1;strokeColor=none;fillColor=none;fontFamily=Times New Roman;fontSize=14;" vertex="1" parent="1">
          <mxGeometry x="412" y="133" width="80" height="50" as="geometry" />
        </mxCell>
        <mxCell id="uZxjk2ptFaiyLhCvUpz8-34" value="Add/Edit&amp;nbsp;&lt;div&gt;Customer&lt;/div&gt;" style="text;html=1;align=center;verticalAlign=middle;resizable=0;points=[];autosize=1;strokeColor=none;fillColor=none;fontFamily=Times New Roman;fontSize=14;" vertex="1" parent="1">
          <mxGeometry x="532" y="138" width="80" height="50" as="geometry" />
        </mxCell>
        <mxCell id="uZxjk2ptFaiyLhCvUpz8-35" value="Save/Update&lt;div&gt;Sale&lt;/div&gt;" style="text;html=1;align=center;verticalAlign=middle;resizable=0;points=[];autosize=1;strokeColor=none;fillColor=none;fontFamily=Times New Roman;fontSize=14;" vertex="1" parent="1">
          <mxGeometry x="787" y="198" width="100" height="50" as="geometry" />
        </mxCell>
        <mxCell id="uZxjk2ptFaiyLhCvUpz8-36" value="Add/Edit&amp;nbsp;&lt;div&gt;Sale&lt;/div&gt;" style="text;html=1;align=center;verticalAlign=middle;resizable=0;points=[];autosize=1;strokeColor=none;fillColor=none;fontFamily=Times New Roman;fontSize=14;" vertex="1" parent="1">
          <mxGeometry x="787" y="148" width="80" height="50" as="geometry" />
        </mxCell>
        <mxCell id="uZxjk2ptFaiyLhCvUpz8-37" value="Save/Update&lt;div&gt;Customer&lt;/div&gt;" style="text;html=1;align=center;verticalAlign=middle;resizable=0;points=[];autosize=1;strokeColor=none;fillColor=none;fontFamily=Times New Roman;fontSize=14;" vertex="1" parent="1">
          <mxGeometry x="527" y="178" width="100" height="50" as="geometry" />
        </mxCell>
        <mxCell id="uZxjk2ptFaiyLhCvUpz8-38" value="List/Delete&lt;div&gt;Purchasing&lt;/div&gt;" style="text;html=1;align=center;verticalAlign=middle;resizable=0;points=[];autosize=1;strokeColor=none;fillColor=none;fontFamily=Times New Roman;fontSize=14;" vertex="1" parent="1">
          <mxGeometry x="657" y="218" width="90" height="50" as="geometry" />
        </mxCell>
        <mxCell id="uZxjk2ptFaiyLhCvUpz8-39" value="Save/Update&lt;div&gt;Purchasing&lt;/div&gt;" style="text;html=1;align=center;verticalAlign=middle;resizable=0;points=[];autosize=1;strokeColor=none;fillColor=none;fontFamily=Times New Roman;fontSize=14;" vertex="1" parent="1">
          <mxGeometry x="657" y="178" width="100" height="50" as="geometry" />
        </mxCell>
        <mxCell id="uZxjk2ptFaiyLhCvUpz8-40" value="Add/Edit&amp;nbsp;&lt;div&gt;Purchasing&lt;/div&gt;" style="text;html=1;align=center;verticalAlign=middle;resizable=0;points=[];autosize=1;strokeColor=none;fillColor=none;fontFamily=Times New Roman;fontSize=14;" vertex="1" parent="1">
          <mxGeometry x="657" y="138" width="90" height="50" as="geometry" />
        </mxCell>
        <mxCell id="uZxjk2ptFaiyLhCvUpz8-44" value="List/Delete&lt;div&gt;Sale&lt;/div&gt;" style="text;html=1;align=center;verticalAlign=middle;resizable=0;points=[];autosize=1;strokeColor=none;fillColor=none;fontFamily=Times New Roman;fontSize=14;" vertex="1" parent="1">
          <mxGeometry x="787" y="238" width="90" height="50" as="geometry" />
        </mxCell>
        <mxCell id="uZxjk2ptFaiyLhCvUpz8-45" value="List/Delete&lt;div&gt;Customer&lt;/div&gt;" style="text;html=1;align=center;verticalAlign=middle;resizable=0;points=[];autosize=1;strokeColor=none;fillColor=none;fontFamily=Times New Roman;fontSize=14;" vertex="1" parent="1">
          <mxGeometry x="537" y="248" width="90" height="50" as="geometry" />
        </mxCell>
        <mxCell id="uZxjk2ptFaiyLhCvUpz8-46" value="List/Delete&lt;div&gt;Inventory&lt;/div&gt;" style="text;html=1;align=center;verticalAlign=middle;resizable=0;points=[];autosize=1;strokeColor=none;fillColor=none;fontFamily=Times New Roman;fontSize=14;" vertex="1" parent="1">
          <mxGeometry x="397" y="398" width="90" height="50" as="geometry" />
        </mxCell>
        <mxCell id="uZxjk2ptFaiyLhCvUpz8-47" value="Admin" style="shape=umlActor;verticalLabelPosition=bottom;verticalAlign=top;html=1;outlineConnect=0;fontFamily=Times New Roman;fontSize=14;" vertex="1" parent="1">
          <mxGeometry x="110" y="50" width="30" height="60" as="geometry" />
        </mxCell>
        <mxCell id="uZxjk2ptFaiyLhCvUpz8-48" value="" style="html=1;points=[[0,0,0,0,5],[0,1,0,0,-5],[1,0,0,0,5],[1,1,0,0,-5]];perimeter=orthogonalPerimeter;outlineConnect=0;targetShapes=umlLifeline;portConstraint=eastwest;newEdgeStyle={&quot;curved&quot;:0,&quot;rounded&quot;:0};fontFamily=Times New Roman;fontSize=14;" vertex="1" parent="1">
          <mxGeometry x="120" y="143" width="10" height="367" as="geometry" />
        </mxCell>
        <mxCell id="uZxjk2ptFaiyLhCvUpz8-49" value="" style="shape=umlDestroy;whiteSpace=wrap;html=1;strokeWidth=3;targetShapes=umlLifeline;fontFamily=Times New Roman;fontSize=14;" vertex="1" parent="1">
          <mxGeometry x="232" y="480" width="30" height="30" as="geometry" />
        </mxCell>
        <mxCell id="uZxjk2ptFaiyLhCvUpz8-51" value="" style="shape=umlDestroy;whiteSpace=wrap;html=1;strokeWidth=3;targetShapes=umlLifeline;fontFamily=Times New Roman;fontSize=14;" vertex="1" parent="1">
          <mxGeometry x="362" y="480" width="30" height="30" as="geometry" />
        </mxCell>
        <mxCell id="uZxjk2ptFaiyLhCvUpz8-52" value="" style="shape=umlDestroy;whiteSpace=wrap;html=1;strokeWidth=3;targetShapes=umlLifeline;fontFamily=Times New Roman;fontSize=14;" vertex="1" parent="1">
          <mxGeometry x="492" y="480" width="30" height="30" as="geometry" />
        </mxCell>
        <mxCell id="uZxjk2ptFaiyLhCvUpz8-53" value="" style="shape=umlDestroy;whiteSpace=wrap;html=1;strokeWidth=3;targetShapes=umlLifeline;fontFamily=Times New Roman;fontSize=14;" vertex="1" parent="1">
          <mxGeometry x="622" y="480" width="30" height="30" as="geometry" />
        </mxCell>
        <mxCell id="uZxjk2ptFaiyLhCvUpz8-54" value="" style="shape=umlDestroy;whiteSpace=wrap;html=1;strokeWidth=3;targetShapes=umlLifeline;fontFamily=Times New Roman;fontSize=14;" vertex="1" parent="1">
          <mxGeometry x="752" y="480" width="30" height="30" as="geometry" />
        </mxCell>
        <mxCell id="uZxjk2ptFaiyLhCvUpz8-3" value="Login" style="html=1;verticalAlign=bottom;startArrow=oval;endArrow=block;startSize=8;edgeStyle=elbowEdgeStyle;elbow=vertical;curved=0;rounded=0;fontFamily=Times New Roman;fontSize=14;" edge="1" parent="1" target="uZxjk2ptFaiyLhCvUpz8-2" source="uZxjk2ptFaiyLhCvUpz8-48">
          <mxGeometry relative="1" as="geometry">
            <mxPoint x="140" y="170" as="sourcePoint" />
            <Array as="points">
              <mxPoint x="180" y="170" />
            </Array>
          </mxGeometry>
        </mxCell>
        <mxCell id="uZxjk2ptFaiyLhCvUpz8-59" value="Save/Update&lt;div&gt;Inventory&lt;/div&gt;" style="text;html=1;align=center;verticalAlign=middle;resizable=0;points=[];autosize=1;strokeColor=none;fillColor=none;fontFamily=Times New Roman;fontSize=14;" vertex="1" parent="1">
          <mxGeometry x="412" y="173" width="100" height="50" as="geometry" />
        </mxCell>
        <mxCell id="uZxjk2ptFaiyLhCvUpz8-60" value="" style="endArrow=classic;html=1;rounded=0;fontFamily=Times New Roman;fontSize=14;" edge="1" parent="1" target="uZxjk2ptFaiyLhCvUpz8-4">
          <mxGeometry width="50" height="50" relative="1" as="geometry">
            <mxPoint x="384" y="191" as="sourcePoint" />
            <mxPoint x="386" y="215" as="targetPoint" />
            <Array as="points">
              <mxPoint x="425" y="191" />
              <mxPoint x="425" y="215" />
            </Array>
          </mxGeometry>
        </mxCell>
      </root>
    </mxGraphModel>
  </diagram>
</mxfile>
